<svg width="553" height="218" viewBox="0 0 553 218" fill="none" xmlns="http://www.w3.org/2000/svg">
<path d="M45.8734 7.27148H6.57324V46.5646H45.8734V7.27148Z" fill="black"/>
<path d="M44.8947 211.987V70.4761H7.69238V211.987H44.8947ZM292.164 213.386V178.707C286.71 178.707 282.095 178.427 278.738 177.868C274.822 177.309 271.885 175.91 269.927 173.953C267.969 171.995 266.71 169.198 266.011 165.563C265.451 162.067 265.172 157.452 265.172 151.859V102.358H292.164V70.4761H265.172V15.242H227.829V152.139C227.829 163.745 228.808 173.533 230.766 181.364C232.725 189.055 236.081 195.347 240.696 200.101C245.312 204.856 251.466 208.212 258.878 210.309C266.43 212.407 275.941 213.386 287.269 213.386H292.164ZM505.868 211.987V4.33496H468.526V211.987H505.868ZM191.886 84.3196C181.536 73.1329 166.991 67.5396 148.53 67.5396C139.579 67.5396 131.467 69.3574 124.055 72.9931C116.782 76.6287 110.488 81.6627 105.593 88.0951L103.495 90.7519V88.3747V70.4761H66.7126V211.987H103.775V136.617V141.791C103.775 140.952 103.775 140.113 103.775 139.274C104.195 125.99 107.411 116.202 113.565 109.909C120.139 103.197 128.11 99.8411 137.201 99.8411C147.97 99.8411 156.222 103.197 161.676 109.629C166.991 116.062 169.788 125.151 169.788 136.757V137.037V211.847H207.41V131.583C207.55 111.447 202.235 95.5062 191.886 84.3196ZM449.225 140.952C449.225 130.744 447.407 121.236 443.911 112.286C440.274 103.477 435.239 95.6461 428.946 88.9341C422.512 82.2221 414.82 77.0482 405.869 73.2728C396.918 69.4973 386.988 67.6794 376.219 67.6794C366.01 67.6794 356.359 69.6371 347.408 73.4126C338.457 77.3279 330.625 82.5017 324.052 89.0739C317.479 95.6461 312.164 103.477 308.388 112.426C304.472 121.375 302.654 131.024 302.654 141.232C302.654 151.44 304.472 161.088 308.108 170.037C311.744 178.987 316.919 186.817 323.353 193.389C329.786 199.962 337.758 205.275 346.989 209.051C356.219 212.966 366.429 214.924 377.338 214.924C408.946 214.924 428.526 200.521 440.274 187.097L413.422 166.681C407.827 173.393 394.401 182.483 377.618 182.483C367.128 182.483 358.457 180.105 351.884 175.211C345.311 170.457 340.835 163.745 338.457 155.495L338.038 154.236H449.225V140.952ZM338.318 127.948C338.318 117.6 350.206 99.5614 375.8 99.4216C401.394 99.4216 413.422 117.46 413.422 127.808L338.318 127.948Z" fill="black"/>
</svg>
